<svg width="64" height="64" viewBox="0 0 64 64" fill="none" xmlns="http://www.w3.org/2000/svg">
  <!-- 背景圆形 -->
  <circle cx="32" cy="32" r="30" fill="url(#backgroundGradient)" stroke="url(#borderGradient)" stroke-width="2"/>
  
  <!-- NFT方块主体 -->
  <rect x="22" y="22" width="20" height="20" rx="3" fill="url(#nftGradient)" stroke="#ffffff" stroke-width="1.5" opacity="0.9"/>
  
  <!-- 盲拍眼罩 -->
  <ellipse cx="32" cy="26" rx="12" ry="4" fill="url(#maskGradient)"/>
  <ellipse cx="32" cy="26" rx="10" ry="3" fill="#1f2937" opacity="0.8"/>
  
  <!-- 眼罩带子 -->
  <rect x="18" y="24" width="4" height="4" rx="2" fill="#374151"/>
  <rect x="42" y="24" width="4" height="4" rx="2" fill="#374151"/>
  
  <!-- NFT内容装饰 -->
  <rect x="26" y="30" width="4" height="4" rx="1" fill="#60a5fa" opacity="0.7"/>
  <rect x="34" y="30" width="4" height="4" rx="1" fill="#a78bfa" opacity="0.7"/>
  <rect x="26" y="36" width="4" height="4" rx="1" fill="#34d399" opacity="0.7"/>
  <rect x="34" y="36" width="4" height="4" rx="1" fill="#fbbf24" opacity="0.7"/>
  
  <!-- 拍卖锤装饰 -->
  <g transform="translate(45, 45)">
    <!-- 锤头 -->
    <rect x="0" y="2" width="6" height="3" rx="1" fill="#e5e7eb"/>
    <!-- 锤柄 -->
    <rect x="2.5" y="5" width="1" height="6" fill="#92400e"/>
    <!-- 底座 -->
    <ellipse cx="3" cy="11" rx="2" ry="0.5" fill="#6b7280" opacity="0.5"/>
  </g>
  
  <!-- 区块链装饰点 -->
  <circle cx="16" cy="16" r="2" fill="#06b6d4" opacity="0.6"/>
  <circle cx="48" cy="16" r="2" fill="#8b5cf6" opacity="0.6"/>
  <circle cx="16" cy="48" r="2" fill="#10b981" opacity="0.6"/>
  
  <!-- 渐变定义 -->
  <defs>
    <!-- 背景渐变 -->
    <radialGradient id="backgroundGradient" cx="50%" cy="50%" r="50%">
      <stop offset="0%" stop-color="#1e293b"/>
      <stop offset="70%" stop-color="#0f172a"/>
      <stop offset="100%" stop-color="#020617"/>
    </radialGradient>
    
    <!-- 边框渐变 -->
    <linearGradient id="borderGradient" x1="0%" y1="0%" x2="100%" y2="100%">
      <stop offset="0%" stop-color="#3b82f6"/>
      <stop offset="50%" stop-color="#8b5cf6"/>
      <stop offset="100%" stop-color="#06b6d4"/>
    </linearGradient>
    
    <!-- NFT方块渐变 -->
    <linearGradient id="nftGradient" x1="0%" y1="0%" x2="100%" y2="100%">
      <stop offset="0%" stop-color="#1f2937"/>
      <stop offset="50%" stop-color="#374151"/>
      <stop offset="100%" stop-color="#4b5563"/>
    </linearGradient>
    
    <!-- 眼罩渐变 -->
    <linearGradient id="maskGradient" x1="0%" y1="0%" x2="100%" y2="100%">
      <stop offset="0%" stop-color="#374151"/>
      <stop offset="100%" stop-color="#111827"/>
    </linearGradient>
  </defs>
</svg>
